# 3ds Max Wavefront OBJ Exporter v0.97b - (c)2007 guruware
# File Created: 21.07.2012 00:40:18

mtllib bbul.mtl

#
# object Pyramid001
#

v  -0.9877 10.3882 0.6244
v  -6.6247 0.0050 7.4202
v  4.6493 0.0050 7.4202
v  4.6493 0.0050 -6.1714
v  -6.6247 0.0050 -6.1714
v  -0.9877 0.0050 0.6244
# 6 vertices

vn 0.0000 0.5476 0.8367
vn 0.8788 0.4771 -0.0000
vn 0.0000 0.5476 -0.8367
vn -0.8788 0.4771 -0.0000
vn 0.0000 -1.0000 -0.0000
# 5 vertex normals

vt 0.5000 1.0000 0.0000
vt 0.0000 0.0000 0.0000
vt 1.0000 0.0000 0.0000
vt 0.0853 0.0000 0.0000
vt 1.0853 0.0000 0.0000
vt 0.0000 1.0000 0.0000
vt 0.5000 0.5000 0.0000
vt 1.0000 1.0000 0.0000
# 8 texture coords

g Pyramid001
usemtl wire_008110134
s 4
f 1/1/1 2/2/1 3/3/1 
s 2
f 1/1/2 3/4/2 4/5/2 
s 16
f 1/1/3 4/2/3 5/3/3 
s 32
f 1/1/4 5/4/4 2/5/4 
s 8
f 2/6/5 6/7/5 3/8/5 
f 3/8/5 6/7/5 4/3/5 
f 4/3/5 6/7/5 5/2/5 
f 5/2/5 6/7/5 2/6/5 
# 0 polygons - 8 triangles

